<svg width="128" height="128" viewBox="0 0 128 128" fill="none" xmlns="http://www.w3.org/2000/svg">
<rect width="128" height="128" rx="64" fill="#FFE3D9"/>
<path d="M25 36.1349C25 33.9831 25.8548 31.9194 27.3764 30.3979C28.8979 28.8763 30.9616 28.0215 33.1135 28.0215H55.4254C57.5773 28.0215 59.641 28.8763 61.1625 30.3979C62.6841 31.9194 63.5389 33.9831 63.5389 36.1349V62.5037C63.5389 63.0416 63.3252 63.5575 62.9448 63.9379C62.5644 64.3183 62.0485 64.532 61.5105 64.532H27.0284C26.4904 64.532 25.9745 64.3183 25.5941 63.9379C25.2137 63.5575 25 63.0416 25 62.5037V36.1349Z" fill="#FFD9B8"/>
<path d="M92.9502 63.5389C95.102 63.5389 97.1657 64.3937 98.6872 65.9153C100.209 67.4369 101.064 69.5005 101.064 71.6524V93.9644C101.064 96.1162 100.209 98.1799 98.6872 99.7014C97.1657 101.223 95.102 102.078 92.9502 102.078H64.5531C64.0151 102.078 63.4992 101.864 63.1188 101.484C62.7384 101.103 62.5247 100.587 62.5247 100.049V65.5673C62.5247 65.0293 62.7384 64.5134 63.1188 64.133C63.4992 63.7526 64.0151 63.5389 64.5531 63.5389H92.9502Z" fill="#FFB8B9"/>
<path d="M74.196 27.5043C75.818 25.8932 78.0135 24.9924 80.2996 25C82.5857 25.0077 84.7752 25.923 86.3864 27.5448L99.4957 40.7454C101.107 42.3674 102.008 44.5629 102 46.8491C101.992 49.1352 101.077 51.3246 99.4552 52.9359L86.2789 66.0188C84.6569 67.6299 82.4614 68.5307 80.1753 68.5231C77.8892 68.5154 75.6997 67.6001 74.0885 65.9783L60.9792 52.7777C59.3684 51.1554 58.468 48.9597 58.4759 46.6736C58.4839 44.3875 59.3997 42.1982 61.0218 40.5872L74.196 27.5043Z" fill="#B9BFFF"/>
<g clip-path="url(#clip0_61_50)">
<path d="M71.9064 55.4747C70.763 54.3313 69.9021 53.0308 69.3237 51.5734C68.7453 50.1159 68.4561 48.6275 68.4561 47.1081C68.4561 45.5887 68.7453 44.1003 69.3237 42.6429C69.9021 41.1854 70.763 39.885 71.9064 38.7415C73.0638 37.5842 74.3782 36.7232 75.8496 36.1588C77.321 35.5943 78.82 35.3224 80.3466 35.343C81.8733 35.3637 83.372 35.6705 84.8428 36.2634C86.3137 36.8563 87.635 37.7381 88.8069 38.9089C89.9225 40.0244 90.7834 41.2691 91.3897 42.6429C91.996 44.0167 92.3343 45.4147 92.4045 46.837C92.4748 48.2594 92.2657 49.6538 91.777 51.0203C91.2884 52.3869 90.5076 53.6067 89.4344 54.6799C87.8308 56.2835 86.112 57.0261 84.2781 56.9079C82.4441 56.7896 80.8302 56.033 79.4364 54.638L77.8885 53.0902C77.763 52.9647 77.6412 52.9126 77.5229 52.9338C77.4047 52.955 77.3034 53.0071 77.2192 53.0902C77.0519 53.2575 76.9158 53.6028 76.8109 54.126C76.7061 54.6492 76.4517 55.1127 76.0479 55.5165C75.3507 56.2137 74.6431 56.5381 73.9253 56.4896C73.2074 56.441 72.5345 56.1027 71.9064 55.4747ZM76.0897 43.887C76.5638 43.887 76.9822 43.7057 77.3447 43.3432C77.7073 42.9806 77.8885 42.5623 77.8885 42.0882C77.8885 41.6141 77.7073 41.1957 77.3447 40.8332C76.9822 40.4706 76.5638 40.2894 76.0897 40.2894C75.6156 40.2894 75.1973 40.4706 74.8347 40.8332C74.4722 41.1957 74.2909 41.6141 74.2909 42.0882C74.2909 42.5623 74.4722 42.9806 74.8347 43.3432C75.1973 43.7057 75.6156 43.887 76.0897 43.887ZM81.9463 43.0503C82.4204 43.0503 82.8388 42.8691 83.2013 42.5065C83.5639 42.1439 83.7451 41.7256 83.7451 41.2515C83.7451 40.7774 83.5639 40.3591 83.2013 39.9965C82.8388 39.634 82.4204 39.4527 81.9463 39.4527C81.4722 39.4527 81.0539 39.634 80.6913 39.9965C80.3288 40.3591 80.1475 40.7774 80.1475 41.2515C80.1475 41.7256 80.3288 42.1439 80.6913 42.5065C81.0539 42.8691 81.4722 43.0503 81.9463 43.0503ZM86.1296 47.2336C86.6037 47.2336 87.022 47.0523 87.3846 46.6898C87.7471 46.3272 87.9284 45.9089 87.9284 45.4348C87.9284 44.9607 87.7471 44.5424 87.3846 44.1798C87.022 43.8173 86.6037 43.636 86.1296 43.636C85.6555 43.636 85.2372 43.8173 84.8746 44.1798C84.5121 44.5424 84.3308 44.9607 84.3308 45.4348C84.3308 45.9089 84.5121 46.3272 84.8746 46.6898C85.2372 47.0523 85.6555 47.2336 86.1296 47.2336ZM85.293 53.0902C85.7671 53.0902 86.1854 52.9089 86.5479 52.5464C86.9105 52.1838 87.0918 51.7655 87.0918 51.2914C87.0918 50.8173 86.9105 50.399 86.5479 50.0364C86.1854 49.6739 85.7671 49.4926 85.293 49.4926C84.8188 49.4926 84.4005 49.6739 84.038 50.0364C83.6754 50.399 83.4941 50.8173 83.4941 51.2914C83.4941 51.7655 83.6754 52.1838 84.038 52.5464C84.4005 52.9089 84.8188 53.0902 85.293 53.0902Z" fill="#393E77"/>
</g>
<path d="M63.5389 100.028C63.5389 100.566 63.3252 101.082 62.9448 101.463C62.5644 101.843 62.0485 102.057 61.5105 102.057H33.1135C30.9616 102.057 28.8979 101.202 27.3764 99.6804C25.8548 98.1588 25 96.0951 25 93.9433V65.5462C25 65.0083 25.2137 64.4923 25.5941 64.1119C25.9745 63.7316 26.4904 63.5179 27.0284 63.5179H61.5105C62.0485 63.5179 62.5644 63.7316 62.9448 64.1119C63.3252 64.4923 63.5389 65.0083 63.5389 65.5462V100.028Z" fill="#8EFF9F"/>
<path fill-rule="evenodd" clip-rule="evenodd" d="M33.8977 76.727C33.9969 76.2496 34.578 76.1284 34.9227 76.4733L35.0484 76.5986L36.8045 78.3551C36.8048 78.3554 36.8054 78.3554 36.8057 78.355C36.8059 78.3546 36.8065 78.3546 36.8068 78.3549L37.5524 79.1007C37.7836 79.332 38.1207 79.4224 38.4366 79.3377L39.1131 79.1565C39.8476 78.9597 40.4213 78.3859 40.618 77.6514L40.7858 77.0248C40.8787 76.6783 40.7796 76.3085 40.526 76.0548L39.8165 75.3451C39.8162 75.3448 39.8162 75.3443 39.8165 75.344C39.8167 75.3437 39.8167 75.3432 39.8165 75.3429L38.0599 73.5864L37.9346 73.4611C37.5899 73.1163 37.7111 72.5353 38.1884 72.4361C38.9213 72.2837 39.6812 72.281 40.4216 72.4321C41.4987 72.652 42.4858 73.1877 43.2572 73.9709C44.0285 74.7541 44.5491 75.7493 44.7526 76.8296C44.9556 77.9072 44.8338 79.0208 44.4028 80.029C44.4008 80.0335 44.4018 80.0387 44.4053 80.0422C44.41 80.0469 44.41 80.0544 44.4053 80.0591L43.203 81.2612C42.7575 81.7066 42.1005 81.8348 41.4705 81.842C41.2068 81.8451 40.9431 81.879 40.6851 81.944C40.0943 82.0929 39.5548 82.3991 39.1241 82.83C38.801 83.1531 38.3431 83.3201 37.9015 83.2034C37.3177 83.0491 36.7615 82.7998 36.2557 82.4642C35.5481 81.9946 34.9581 81.3684 34.5313 80.6342C34.1046 79.8999 33.8525 79.0773 33.7947 78.23C33.7602 77.7251 33.7953 77.2194 33.8977 76.727ZM44.8805 85.2606C44.8714 85.9322 44.9885 86.6491 45.4635 87.1241L49.8018 91.4624C49.9989 91.6628 50.2338 91.8222 50.4929 91.9313C50.752 92.0405 51.0301 92.0973 51.3113 92.0985C51.5924 92.0996 51.871 92.0451 52.131 91.938C52.3909 91.831 52.6271 91.6735 52.8259 91.4747C53.0247 91.2759 53.1822 91.0397 53.2893 90.7797C53.3963 90.5198 53.4509 90.2412 53.4497 89.96C53.4486 89.6789 53.3918 89.4007 53.2826 89.1417C53.1734 88.8826 53.014 88.6477 52.8136 88.4505L47.8838 83.5206C47.2149 82.8518 46.1305 82.8518 45.4616 83.5205C45.0162 83.9658 44.889 84.6308 44.8805 85.2606Z" fill="#255D2D"/>
<path d="M43.2653 83.4572L47.2813 79.4415" stroke="#255D2D" stroke-width="1.25" stroke-linecap="square" stroke-linejoin="round"/>
<path d="M51.1911 73.2988C51.8233 72.7946 52.7334 72.8458 53.3052 73.4176C53.8771 73.9894 53.9282 74.8995 53.424 75.5318L50.9532 78.6304C50.5764 79.1029 50.0091 79.3836 49.4048 79.3965C48.2469 79.421 47.3018 78.4758 47.3264 77.3179C47.3392 76.7135 47.62 76.1461 48.0926 75.7692L51.1911 73.2988ZM39.7515 83.4576C39.9822 83.2268 40.2562 83.0438 40.5576 82.9189C40.8591 82.7941 41.1822 82.7298 41.5086 82.7298C41.8349 82.7298 42.158 82.7941 42.4595 82.9189C42.761 83.0438 43.0349 83.2268 43.2656 83.4576C43.4964 83.6883 43.6794 83.9623 43.8043 84.2637C43.9292 84.5652 43.9934 84.8883 43.9934 85.2147C43.9934 85.541 43.9292 85.8641 43.8043 86.1656C43.6794 86.4671 43.4964 86.741 43.2656 86.9717L37.4921 92.7441C37.4262 92.8101 37.3479 92.8624 37.2618 92.8981C37.1756 92.9338 37.0833 92.9522 36.9901 92.9522C36.8968 92.9522 36.8045 92.9338 36.7183 92.8981C36.6322 92.8624 36.5539 92.8101 36.488 92.7441L33.9784 90.2338C33.8453 90.1007 33.7705 89.9202 33.7705 89.7319C33.7705 89.5437 33.8453 89.3631 33.9784 89.23L39.7515 83.4576Z" fill="#255D2D"/>
<defs>
<clipPath id="clip0_61_50">
<rect width="28.3971" height="28.3971" fill="white" transform="translate(80.273 27.0284) rotate(45)"/>
</clipPath>
</defs>
</svg>
